<svg width="30" height="36" viewBox="0 0 30 36" fill="none" xmlns="http://www.w3.org/2000/svg">
<path fill-rule="evenodd" clip-rule="evenodd" d="M22.9013 18.0462C23.9643 15.7366 24.1523 13.0233 23.2141 10.4454C21.3251 5.25566 15.5867 2.57979 10.3969 4.46871C5.20715 6.35764 2.53128 12.0961 4.4202 17.2858C5.54536 20.3772 8.03636 22.5766 10.9637 23.4505C11.1716 23.5889 11.3925 23.7134 11.6258 23.8221L13.4118 24.655L16.2976 23.6046L17.3237 26.4237L21.0824 25.0556L22.4748 28.8811L25.2204 30.1614L27.3335 25.6299C28.5005 23.1272 27.4178 20.1523 24.9151 18.9852L22.9013 18.0462ZM14.6705 10.3625C15.2371 11.9195 14.4344 13.641 12.8774 14.2077C11.3205 14.7743 9.59897 13.9716 9.0323 12.4146C8.46562 10.8577 9.26838 9.13618 10.8253 8.56951C12.3822 8.00283 14.1038 8.80559 14.6705 10.3625Z" fill="#3B6061"/>
<path fill-rule="evenodd" clip-rule="evenodd" d="M21.9013 17.0462C22.9643 14.7366 23.1523 12.0233 22.2141 9.44544C20.3251 4.25566 14.5867 1.57979 9.39693 3.46871C4.20715 5.35764 1.53128 11.0961 3.4202 16.2858C4.54536 19.3772 7.03636 21.5766 9.96368 22.4505C10.1716 22.5889 10.3925 22.7134 10.6258 22.8221L12.4118 23.655L15.2976 22.6046L16.3237 25.4237L20.0824 24.0556L21.4748 27.8811L24.2204 29.1614L26.3335 24.6299C27.5005 22.1272 26.4178 19.1523 23.9151 17.9852L21.9013 17.0462ZM13.6705 9.36252C14.2371 10.9195 13.4344 12.641 11.8774 13.2077C10.3205 13.7743 8.59897 12.9716 8.0323 11.4146C7.46562 9.85771 8.26838 8.13618 9.82531 7.56951C11.3822 7.00283 13.1038 7.80559 13.6705 9.36252Z" fill="#D76144"/>
</svg>
